<svg viewBox="0 0 72 72" version="1.1" xmlns="http://www.w3.org/2000/svg"><path d="M900.25 198.494h-52v88h52c24.3 0 44-19.7 44-44s-19.7-44-44-44z" fill="#BA98FF" /><path d="M624.25 127.828H512l-196.556-102.956C288.41 10.71 256 30.32 256 60.84v306.642c0 30.52 32.41 50.13 59.444 35.968L512 300.494h112.25v51.334h224v-176c0-26.51-21.49-48-48-48h-176z" fill="#F2EBFF" /><path d="M624.25 351.828h224v-176c0-26.51-21.49-48-48-48h-176v224z" fill="#DAC7FF" /><path d="M896.5 475.828H576a180.258 180.258 0 0 0-63.746 137.542v310.456c0 44.182 35.818 80 80 80h288c44.182 0 80-35.818 80-80V613.376a180.258 180.258 0 0 0-63.754-137.548z" fill="#FFFFFF" /><path d="M848.25 351.828h-224c-26.51 0-48 21.49-48 48v76h320v-76c0-26.51-21.49-48-48-48z" fill="#FE61AD" /><path d="M164 683.828c-79.53 0-144 64.47-144 144v32c0 79.528 64.47 144 144 144 79.528 0 144-64.47 144-144v-32c0-79.53-64.47-144-144-144z" fill="#F2EBFF" /><path d="M212 683.828v-23.206c0-26.51-21.49-48-48-48s-48 21.49-48 48v23.206h96z" fill="#FE61AD" /><path d="M960.26 725.828c-5.26 0-10.42 2.138-14.16 5.86-3.72 3.72-5.84 8.88-5.84 14.14s2.12 10.42 5.84 14.138c3.74 3.72 8.9 5.862 14.16 5.862s10.4-2.14 14.14-5.862c3.72-3.718 5.86-8.878 5.86-14.138s-2.14-10.42-5.86-14.14a20.142 20.142 0 0 0-14.14-5.86zM876 567.702h-86c-11.046 0-20 8.956-20 20s8.954 20 20 20h86c11.046 0 20-8.956 20-20s-8.954-20-20-20zM876 679.702h-86c-11.046 0-20 8.956-20 20s8.954 20 20 20h86c11.046 0 20-8.956 20-20s-8.954-20-20-20zM876 791.702h-86c-11.046 0-20 8.956-20 20s8.954 20 20 20h86c11.046 0 20-8.956 20-20s-8.954-20-20-20zM876 903.702h-86c-11.046 0-20 8.956-20 20s8.954 20 20 20h86c11.046 0 20-8.956 20-20s-8.954-20-20-20zM374 492.082h-109.46c-60.572 0-110.832 44.916-119.272 103.184C116.856 603.422 96 629.622 96 660.62v18.028c-56.576 25.894-96 83-96 149.178v32c0 90.43 73.57 164 164 164s164-73.57 164-164v-32c0-66.178-39.424-123.286-96-149.178v-18.028c0-29.912-19.422-55.356-46.31-64.432 7.608-36.556 40.07-64.106 78.85-64.106H374c11.046 0 20-8.956 20-20s-8.956-20-20-20z m-86 335.746v32c0 68.374-55.626 124-124 124s-124-55.626-124-124v-32c0-68.374 55.626-124 124-124s124 55.626 124 124z m-96-161.56c-9.106-1.574-18.452-2.44-28-2.44s-18.894 0.866-28 2.44v-5.648c0-15.44 12.56-28 28-28s28 12.56 28 28v5.648zM449 492.088c-5.26 0-10.42 2.12-14.14 5.86a20.088 20.088 0 0 0-5.86 14.14c0 5.26 2.14 10.42 5.86 14.14 3.72 3.718 8.88 5.86 14.14 5.86s10.42-2.14 14.14-5.86 5.86-8.88 5.86-14.14-2.14-10.42-5.86-14.14a20.058 20.058 0 0 0-14.14-5.86z"  /><path d="M961.636 224.424c-7.818-26.516-32.37-45.932-61.386-45.932h-32v-2.666c0-37.496-30.504-68-68-68H516.92L324.724 7.154c-18.95-9.926-41.19-9.236-59.494 1.836C246.926 20.064 236 39.446 236 60.84v306.642c0 21.392 10.928 40.778 29.232 51.852 9.702 5.872 20.504 8.822 31.342 8.82 9.61 0 19.246-2.322 28.152-6.986l192.196-100.674h87.33v14.34c-27.764 8.562-48 34.456-48 64.994v66.812a199.86 199.86 0 0 0-63.996 146.732v310.458c0 55.14 44.86 100 100 100h288c55.14 0 100-44.86 100-100v-100.666c0-11.044-8.954-20-20-20s-20 8.956-20 20v100.666c0 33.084-26.916 60-60 60h-288c-33.084 0-60-26.916-60-60v-310.46c0-44.814 18.618-87.254 51.324-117.542h305.346a160.35 160.35 0 0 1 22.312 25.576c0.666 1.26 1.46 2.442 2.368 3.526a159.94 159.94 0 0 1 26.65 88.448v50.452c0 11.044 8.954 20 20 20s20-8.956 20-20v-50.452c0-29.16-6.318-57.512-18.136-83.338 35.394-8.14 61.88-39.878 61.88-77.708v-150.088c0-38.004-26.726-69.86-62.364-77.82z m-61.386-5.93c13.234 0 24 10.766 24 24s-10.766 24-24 24h-32v-48h32z m-72-42.666v156h-184v-184h156c15.44 0 28 12.56 28 28zM512 280.494a20 20 0 0 0-9.28 2.284l-196.556 102.958c-9.288 4.866-17.238 1.184-20.226-0.624-2.988-1.808-9.938-7.144-9.938-17.628V60.84c0-10.482 6.95-15.82 9.938-17.626 1.892-1.146 5.778-3.042 10.732-3.042 2.866 0 6.09 0.634 9.494 2.418l10.502 5.502v180.404c0 11.044 8.954 20 20 20s20-8.956 20-20V69.04l146.052 76.504a20 20 0 0 0 9.28 2.284h92.25v132.666H512z m84.25 175.334v-56c0-15.44 12.56-28 28-28h224c15.44 0 28 12.56 28 28v56h-280zM984 452.332c0 21.918-17.832 39.75-39.75 39.75h-4.884a200.564 200.564 0 0 0-23.116-25.444v-66.81c0-30.538-20.236-56.434-48-64.994v-28.34h32c27.104 0 50.31-16.944 59.626-40.79 14.17 6.084 24.124 20.168 24.124 36.54v150.088zM144 755.828c0 11.044 8.954 20 20 20 28.672 0 52 23.326 52 52 0 11.044 8.954 20 20 20s20-8.956 20-20c0-50.728-41.272-92-92-92-11.046 0-20 8.954-20 20z"  /></svg>